<svg width="512" height="512" viewBox="0 0 512 512" fill="none" xmlns="http://www.w3.org/2000/svg">
<path d="M256 102C187.733 102 145.067 136.133 128 204.4C153.6 170.267 183.467 157.467 217.6 166C237.075 170.869 250.995 184.997 266.402 200.637C291.502 226.114 320.551 255.6 384 255.6C452.267 255.6 494.933 221.467 512 153.2C486.4 187.333 456.533 200.133 422.4 191.6C402.925 186.731 389.005 172.603 373.598 156.963C348.498 131.486 319.449 102 256 102ZM128 255.6C59.7333 255.6 17.0667 289.733 0 358C25.6 323.867 55.4667 311.067 89.6 319.6C109.075 324.469 122.995 338.597 138.402 354.237C163.502 379.714 192.551 409.2 256 409.2C324.267 409.2 366.933 375.067 384 306.8C358.4 340.933 328.533 353.733 294.4 345.2C274.925 340.331 261.005 326.203 245.598 310.563C220.498 285.086 191.449 255.6 128 255.6Z" fill="white"/>
</svg>
